# xmcd
#
# Track frame offsets:
#	150
#	23676
#	46466
#	66053
#	86169
#	106716
#	125203
#	144024
#	163183
#	177541
#	195419
#	218223
#	237281
#	254391
#	272571
#
# Disc length: 3926 seconds
#
# Revision: 1
# Processed by: cddbd v1.5.2PL0 Copyright (c) Steve Scherf et al.
# Submitted via: audiograbber 1.83.01
#
DISCID=d30f540f
DTITLE=Brad Paisley - This Is Country Music
DYEAR=2011
DGENRE=Country
TTITLE0=This Is Country Music
TTITLE1=Old Alabama (Feat. Alabama)
TTITLE2=A Man Dont Have To Die
TTITLE3=Camouflage
TTITLE4=Remind Me (Feat. Carrie Underwood)
TTITLE5=Working On A Tan
TTITLE6=Love Her Like Shes Leavin (Feat. Dan Henley)
TTITLE7=One Of Those Lives
TTITLE8=Toothbrush
TTITLE9=Be The Lake
TTITLE10=Eastwood (Feat. Clint Eastwood)
TTITLE11=New Favorite Memory
TTITLE12=Dont Drink The Water (Feat. Blake Shelton)
TTITLE13=I Do Now
TTITLE14=Lifes Railway To Heaven (Feat. Sheryl Crow And Carl Jackson)
EXTD=
EXTT0=
EXTT1=
EXTT2=
EXTT3=
EXTT4=
EXTT5=
EXTT6=
EXTT7=
EXTT8=
EXTT9=
EXTT10=
EXTT11=
EXTT12=
EXTT13=
EXTT14=
PLAYORDER=
